<?xml version="1.0" encoding="UTF-8" standalone="no"?>
<svg xmlns:dc="http://purl.org/dc/elements/1.1/" xmlns:cc="http://creativecommons.org/ns#" xmlns:rdf="http://www.w3.org/1999/02/22-rdf-syntax-ns#" xmlns:svg="http://www.w3.org/2000/svg" xmlns="http://www.w3.org/2000/svg" xmlns:sodipodi="http://sodipodi.sourceforge.net/DTD/sodipodi-0.dtd" xmlns:inkscape="http://www.inkscape.org/namespaces/inkscape" sodipodi:docname="Sparty.svg" inkscape:version="1.0 (4035a4fb49, 2020-05-01)" id="svg8" version="1.1" viewBox="0 0 197.67625 58.546974" height="58.546974mm" width="197.67625mm" inkscape:export-filename="C:\Users\ulysse.geinoz\Desktop\Sparty.png" inkscape:export-xdpi="241.905" inkscape:export-ydpi="241.905">
  <defs id="defs2"/>
  <sodipodi:namedview inkscape:window-maximized="1" inkscape:window-y="-11" inkscape:window-x="-11" inkscape:window-height="986" inkscape:window-width="1920" showguides="false" showgrid="false" inkscape:document-rotation="0" inkscape:current-layer="layer1" inkscape:document-units="mm" inkscape:cy="-116.95407" inkscape:cx="633.9063" inkscape:zoom="0.43592233" inkscape:pageshadow="2" inkscape:pageopacity="0.0" borderopacity="1.0" bordercolor="#666666" pagecolor="#ffffff" id="base"/>
  <metadata id="metadata5">
    <rdf:RDF>
      <cc:Work rdf:about="">
        <dc:format>image/svg+xml</dc:format>
        <dc:type rdf:resource="http://purl.org/dc/dcmitype/StillImage"/>
        <dc:title/>
      </cc:Work>
    </rdf:RDF>
  </metadata>
  <g transform="translate(-5.8525715,-7.0979958)" id="layer1" inkscape:groupmode="layer" inkscape:label="Calque 1">
    <g transform="matrix(1.8197348,0,0,1.8197348,-58.256469,-21.651725)" style="font-weight:900;font-size:35.2778px;line-height:1.25;letter-spacing:-1.32292px;stroke-width:0.264583" id="text835" aria-label="Sparty">
      <path id="path837" style="font-style:normal;font-variant:normal;font-weight:bold;font-stretch:normal;font-size:35.2778px;font-family:'Suisse Int\'l';-inkscape-font-specification:'Suisse Int\'l Bold';stroke-width:0.264583" d="m 45.989611,20.631911 c 2.575279,0 4.445003,1.093612 5.044725,2.998613 h 5.961949 c -0.881945,-5.644448 -5.644449,-7.831672 -10.653896,-7.831672 -5.009448,0 -10.618619,2.434168 -10.618619,7.655283 0,4.586114 3.774725,6.561671 7.937506,7.443616 l 3.104446,0.635 c 2.786947,0.599723 4.762503,1.411112 4.762503,3.069169 0,2.116668 -2.328334,2.786946 -4.374447,2.786946 -3.139724,0 -5.256392,-1.234723 -5.926671,-3.915836 h -5.997226 c 0.917223,5.503337 5.221115,8.784173 11.782786,8.784173 5.326948,0 10.724451,-3.033891 10.724451,-8.396117 0,-5.362226 -5.221114,-6.632226 -9.348617,-7.478894 l -3.492502,-0.705556 c -1.76389,-0.388055 -2.963336,-1.305278 -2.963336,-2.575279 0,-1.587501 1.728613,-2.469446 4.056948,-2.469446 z"/>
      <path id="path839" style="font-style:normal;font-variant:normal;font-weight:bold;font-stretch:normal;font-size:35.2778px;font-family:'Suisse Int\'l';-inkscape-font-specification:'Suisse Int\'l Bold';stroke-width:0.264583" d="m 65.051197,25.394414 v -2.57528 H 59.23036 v 25.153073 h 5.820837 V 39.25859 c 1.234723,2.08139 3.739447,2.998613 5.820837,2.998613 4.868337,0 8.360839,-3.739447 8.360839,-9.94834 0,-6.208893 -3.492502,-9.913062 -8.360839,-9.913062 -2.08139,0 -4.586114,0.917223 -5.820837,2.998613 z m -0.282222,6.914449 c 0,-3.915836 1.905001,-5.397504 4.198058,-5.397504 2.328335,0 4.233336,1.869724 4.233336,5.397504 0,3.52778 -1.905001,5.432781 -4.233336,5.432781 -2.293057,0 -4.198058,-1.516945 -4.198058,-5.432781 z"/>
      <path id="path841" style="font-style:normal;font-variant:normal;font-weight:bold;font-stretch:normal;font-size:35.2778px;font-family:'Suisse Int\'l';-inkscape-font-specification:'Suisse Int\'l Bold';stroke-width:0.264583" d="m 92.458188,29.204416 v 0.740834 c -7.373061,0.529167 -12.629453,2.081391 -12.629453,6.73806 0,3.457225 2.963335,5.573893 6.561671,5.573893 2.716391,0 4.97417,-0.740834 6.385282,-2.751668 l 0.07056,2.293057 h 5.715004 C 98.20847,40.175813 98.102636,36.789144 98.137914,34.319698 l 0.07056,-4.127503 c 0.105833,-5.78556 -3.033891,-7.972783 -8.466673,-7.972783 -5.60917,0 -9.066395,3.175002 -9.313339,6.73806 h 5.432781 c 0.211667,-1.834446 1.516946,-2.786946 3.386669,-2.786946 2.08139,0 3.21028,0.811389 3.21028,3.03389 z m -6.632227,7.055561 c 0,-2.010835 2.716391,-2.540002 6.773338,-2.89278 v 0.458611 c 0,3.492503 -1.76389,4.480281 -4.092225,4.480281 -1.516945,0 -2.681113,-0.811389 -2.681113,-2.046112 z"/>
      <path id="path843" style="font-style:normal;font-variant:normal;font-weight:bold;font-stretch:normal;font-size:35.2778px;font-family:'Suisse Int\'l';-inkscape-font-specification:'Suisse Int\'l Bold';stroke-width:0.264583" d="m 112.28982,28.393027 v -5.679726 c -0.28222,-0.03528 -0.59972,-0.03528 -0.88194,-0.03528 -2.71639,0.105834 -4.3039,1.516946 -5.18584,3.739447 v -3.598336 h -5.60917 V 41.79859 h 5.82084 v -9.525007 c 0,-2.963335 1.48166,-3.986391 4.26861,-3.986391 0.52917,0 0.9525,0.03528 1.5875,0.105833 z"/>
      <path id="path845" style="font-style:normal;font-variant:normal;font-weight:bold;font-stretch:normal;font-size:35.2778px;font-family:'Suisse Int\'l';-inkscape-font-specification:'Suisse Int\'l Bold';stroke-width:0.264583" d="m 114.33207,17.633298 v 5.185836 h -2.99861 v 4.127503 h 2.99861 v 9.525007 c 0,4.445003 1.62278,5.326948 6.27945,5.326948 h 3.70417 v -4.198059 h -1.65806 c -1.94028,0 -2.50472,-0.352778 -2.50472,-2.151946 v -8.50195 h 4.16278 v -4.127503 h -4.16278 v -5.185836 z"/>
      <path id="path847" style="font-style:normal;font-variant:normal;font-weight:bold;font-stretch:normal;font-size:35.2778px;font-family:'Suisse Int\'l';-inkscape-font-specification:'Suisse Int\'l Bold';stroke-width:0.264583" d="m 126.29069,47.972207 h 1.86973 c 4.93889,0 6.35,-1.340557 8.255,-6.173615 l 7.44362,-18.979458 h -6.24417 l -3.73945,11.88862 -3.4925,-11.88862 h -6.38529 l 7.09084,18.873624 -0.17639,0.493889 c -0.56444,1.44639 -1.02305,1.587501 -3.45722,1.587501 h -1.16417 z"/>
    </g>
  </g>
</svg>